<svg width="52" height="52" viewBox="0 0 52 52" fill="none" xmlns="http://www.w3.org/2000/svg">
<circle cx="26" cy="26" r="26" fill="#FFD32E"/>
<g clip-path="url(#clip0_2_56)">
<path fill-rule="evenodd" clip-rule="evenodd" d="M21.4345 24.4484C17.9248 25.232 18.9715 31.0237 22.4419 30.2863C23.7717 30.002 24.7948 28.5502 24.5508 26.868C24.3461 25.4854 23.1028 24.0719 21.4345 24.4484ZM30.5861 24.4484C27.0764 25.232 28.123 31.0237 31.5935 30.2863C32.9233 30.002 33.9543 28.5502 33.7024 26.868C33.5057 25.4854 32.2544 24.0719 30.5861 24.4484ZM16.0835 19.0173C17.3897 17.289 20.6238 16.3056 22.6149 15.6452L22.2685 15C20.1675 15.0614 17.3504 16.2751 15.5876 17.481C14.7693 18.0339 13.9902 19.9929 13.5968 20.9223C12.1175 24.4328 11.2596 28.6503 11 32.829C12.5974 35.3026 17.3817 36.8541 20.1832 37C20.4428 36.5237 20.9703 36.0092 21.2771 35.5173C21.0411 35.3175 18.3105 34.4651 15.8711 32.1835C15.7137 32.0299 15.4385 31.6764 15.3124 31.5767C18.224 33.6354 21.7257 34.8874 26.3606 34.9257C29.4532 34.9566 32.6714 34.3728 35.3078 33.0054C36.4253 32.4294 36.8816 32.0377 37.5818 31.6533C37.1568 32.5061 34.2848 34.3803 33.4268 34.7721C32.9389 34.9793 32.1442 35.2483 31.7192 35.5173C31.9396 35.8246 32.6557 36.8233 32.8761 36.9922C35.827 36.9539 39.0691 35.479 40.6978 34.1116C42.3188 32.752 42.0985 33.1282 41.7601 30.2707C41.579 28.7653 41.3194 27.2673 40.973 25.846C40.5167 23.9641 38.8248 18.3949 37.432 17.4963C36.4799 16.8894 35.9684 16.5899 34.8668 16.0906C33.962 15.676 31.8374 14.9617 30.7119 15.0078L30.405 15.676C32.0104 15.9603 35.9607 17.6041 36.842 18.9715C36.2047 18.7873 34.5127 17.7578 32.1991 17.1048C27.108 15.676 21.9457 16.2751 17.185 18.4952C16.8229 18.6642 16.4452 18.8948 16.0835 19.0176V19.0173Z" fill="black"/>
</g>
<defs>
<clipPath id="clip0_2_56">
<rect width="31" height="22" fill="white" transform="translate(11 15)"/>
</clipPath>
</defs>
</svg>
