<svg width="52" height="52" viewBox="0 0 52 52" fill="none" xmlns="http://www.w3.org/2000/svg">
<circle cx="26" cy="26" r="26" fill="#FFD32E"/>
<path d="M18.5891 17C23.8856 17 28.1781 21.2537 28.1781 26.5007C28.1781 31.7476 23.8843 36 18.5891 36C13.2938 36 9 31.7463 9 26.5007C9 21.255 13.2938 17 18.5891 17ZM33.9023 17.5567C36.5506 17.5567 38.6969 21.5608 38.6969 26.5007C38.6969 31.4392 36.5506 35.4446 33.9023 35.4446C31.2541 35.4446 29.1078 31.4392 29.1078 26.5007C29.1078 21.5621 31.2541 17.5567 33.9023 17.5567ZM41.3133 18.4885C42.2443 18.4885 43 22.0757 43 26.5007C43 30.9256 42.2456 34.5128 41.3133 34.5128C40.3809 34.5128 39.6279 30.9256 39.6279 26.5007C39.6279 22.0757 40.3823 18.4885 41.3133 18.4885Z" fill="black"/>
</svg>
