<svg width="44" height="44" viewBox="0 0 44 44" fill="none" xmlns="http://www.w3.org/2000/svg">
<circle cx="22" cy="22" r="22" fill="#F54748" fill-opacity="0.2"/>
<circle cx="22" cy="22" r="19" fill="#F54748"/>
<path d="M31.581 20.1796C31.9886 20.4224 32.25 20.8615 32.25 21.3447V24.6305C32.25 25.1129 31.9883 25.5517 31.581 25.7952V27.9163C31.581 29.3992 30.3543 30.5978 28.8556 30.5978H15.4754C13.9767 30.5978 12.75 29.3992 12.75 27.9163V14.773C12.75 13.653 13.6769 12.7486 14.8065 12.75M31.581 20.1796L27.5163 13C28.8101 13 29.8899 13.9976 29.9756 15.2712M31.581 20.1796V18.0589C31.581 16.9805 30.9323 16.0525 30.002 15.6264M31.581 20.1796L30.002 15.6264M14.8065 12.75C14.8066 12.75 14.8066 12.75 14.8067 12.75L14.8063 13V12.75H14.8065ZM14.8065 12.75H27.5163C28.9381 12.75 30.129 13.8456 30.2248 15.2521M30.2248 15.2521C30.2247 15.2508 30.2246 15.2494 30.2245 15.2481L29.9756 15.2712M30.2248 15.2521C30.2357 15.3842 30.1749 15.5096 30.0719 15.5853M30.2248 15.2521C30.2249 15.2528 30.2249 15.2536 30.225 15.2544L29.9756 15.2712M29.9756 15.2712L30.0719 15.5853M30.0719 15.5853C30.0725 15.5849 30.073 15.5845 30.0735 15.5841L29.9234 15.3842L30.0705 15.5863C30.071 15.586 30.0714 15.5856 30.0719 15.5853ZM30.0719 15.5853C30.0499 15.6016 30.0264 15.6154 30.002 15.6264M30.0719 15.5853L29.7989 15.4026L29.7551 15.5275C29.7846 15.5377 29.814 15.5484 29.8431 15.5596C29.8969 15.5802 29.9499 15.6025 30.002 15.6264M28.7825 15.2016C28.795 15.2685 28.8245 15.3284 28.866 15.3774C28.8625 15.3774 28.8591 15.3773 28.8556 15.3773H14.8063C14.4612 15.3773 14.1866 15.1013 14.1866 14.773C14.1866 14.4448 14.4612 14.1687 14.8063 14.1687H27.5176C28.1399 14.1687 28.6701 14.6061 28.7825 15.2016ZM28.7825 15.2016C28.7825 15.2014 28.7825 15.2012 28.7824 15.201L29.0282 15.1555L28.7826 15.2018C28.7826 15.2018 28.7825 15.2017 28.7825 15.2016ZM28.8556 29.1778H15.4754C14.7609 29.1778 14.1866 28.6073 14.1866 27.9163V16.7011C14.3855 16.7645 14.5936 16.7974 14.8063 16.7974H28.8556C29.5701 16.7974 30.1444 17.3678 30.1444 18.0589V19.9775H27.1831C25.4998 19.9775 24.1232 21.3233 24.1232 22.9876C24.1232 24.6518 25.4998 25.9977 27.1831 25.9977H30.1444V27.9163C30.1444 28.6073 29.5701 29.1778 28.8556 29.1778ZM27.1831 21.3975H30.6847C30.7596 21.3975 30.8134 21.4567 30.8134 21.5195V24.4557C30.8134 24.5185 30.7596 24.5776 30.6847 24.5776H27.1831C26.284 24.5776 25.5599 23.86 25.5599 22.9876C25.5599 22.1152 26.284 21.3975 27.1831 21.3975Z" fill="white" stroke="white" stroke-width="0.5"/>
</svg>
