<svg width="52" height="52" viewBox="0 0 52 52" fill="none" xmlns="http://www.w3.org/2000/svg">
<circle cx="26" cy="26" r="26" fill="#FFD32E"/>
<g clip-path="url(#clip0_2_58)">
<path d="M11.2959 29.4021H19.6796C19.6796 29.4021 19.3986 30.8296 20.5704 31.9327C21.7423 33.0359 25.8676 32.7115 25.8676 32.7115V29.4021H21.6758C21.6758 29.4021 25.0692 26.0279 25.2022 20.9015C25.3353 15.7752 21.5426 11.8817 21.5426 11.8817C21.5426 11.8817 25.4018 12.1412 25.8676 12.6603V10.849C25.8676 10.3803 26.2572 10 26.7381 10H27.7917C28.2724 10 28.6623 10.38 28.6623 10.849V13.5041C28.6623 13.5041 35.4492 17.2678 35.7817 22.4589C36.1143 27.65 28.9949 29.532 28.9949 29.532V32.7561C28.9949 32.7561 31.4568 32.7766 32.8541 32.3224C34.2513 31.8681 35.8891 29.8344 37.9626 29.0048C39.4223 28.4207 42.9012 27.7151 43.633 27.9746C44.3649 28.2341 43.816 29.4048 43.583 29.5426C43.4693 29.6099 42.048 30.2701 40.8069 31.4746C40.2391 32.0256 37.0458 37.773 35.3824 37.9027C33.7191 38.0325 18.0163 38.0325 17.2844 37.9027C16.5526 37.7728 11.9615 34.3337 11.2961 31.8031C10.6307 29.2725 11.2959 29.4021 11.2959 29.4021Z" fill="black"/>
<path d="M20.5702 15.1263L13.3583 26.5469H20.9435C20.9435 26.5469 22.8065 24.4055 22.5404 21.2907C22.2743 18.176 21.1947 15.3208 20.57 15.1261L20.5702 15.1263Z" fill="black"/>
</g>
<defs>
<clipPath id="clip0_2_58">
<rect width="33" height="28" fill="white" transform="translate(11 10)"/>
</clipPath>
</defs>
</svg>
