<svg width="52" height="52" viewBox="0 0 52 52" fill="none" xmlns="http://www.w3.org/2000/svg">
<circle cx="26" cy="26" r="26" fill="#FFD32E"/>
<g clip-path="url(#clip0_2_57)">
<path d="M40.0001 17.41L37.2841 18.0037L39.9297 15.6861C38.6691 15.9433 37.4084 16.2006 36.1478 16.4576C31.7008 10.97 22.7193 15.4316 24.2044 22.3831C22.4634 21.1093 19.4433 20.6982 17.2517 19.6725C14.2584 18.2717 14.5703 16.7471 14.4009 17.4721C13.0964 23.0487 17.8151 27.1069 19.0831 27.1787C17.8858 27.3584 15.5617 26.5322 15.5617 26.5322C15.5617 26.5322 15.5617 29.5851 20.9781 32.2089C17.8851 33.686 14.3598 34.1391 11.0006 33.5106C21.6602 44.1541 39.9 34.4185 37.5885 19.4992L40.0006 17.41H40.0001Z" fill="black"/>
</g>
<defs>
<clipPath id="clip0_2_57">
<rect width="29" height="24" fill="white" transform="translate(11 14)"/>
</clipPath>
</defs>
</svg>
